<?xml version="1.0" encoding="utf-8"?>
<!-- Generator: Adobe Illustrator 23.1.0, SVG Export Plug-In . SVG Version: 6.00 Build 0)  -->
<svg version="1.1" id="Шар_1" xmlns="http://www.w3.org/2000/svg" xmlns:xlink="http://www.w3.org/1999/xlink" x="0px" y="0px"
	 viewBox="0 0 362 362" style="enable-background:new 0 0 362 362;" xml:space="preserve">
<style type="text/css">
	.st0{fill:#004479;}
</style>
<g>
	<path class="st0" d="M26.22,193.21h309.56c6.76,0,12.22-5.46,12.22-12.22c0-6.76-5.46-12.22-12.22-12.22H26.22
		c-6.76,0-12.22,5.46-12.22,12.22C14,187.75,19.46,193.21,26.22,193.21z"/>
	<path class="st0" d="M26.22,38.44h309.56c6.76,0,12.22-5.46,12.22-12.22S342.54,14,335.78,14H26.22C19.46,14,14,19.46,14,26.22
		S19.46,38.44,26.22,38.44z"/>
	<path class="st0" d="M26.22,348h309.56c6.76,0,12.22-5.46,12.22-12.22s-5.46-12.22-12.22-12.22H26.22
		c-6.76,0-12.22,5.46-12.22,12.22S19.46,348,26.22,348z"/>
</g>
</svg>
