<?xml version="1.0" encoding="utf-8"?>
<!-- Generator: Adobe Illustrator 23.1.0, SVG Export Plug-In . SVG Version: 6.00 Build 0)  -->
<svg version="1.1" id="Шар_1" xmlns="http://www.w3.org/2000/svg" xmlns:xlink="http://www.w3.org/1999/xlink" x="0px" y="0px"
	 viewBox="0 0 362 362" style="enable-background:new 0 0 362 362;" xml:space="preserve">
<style type="text/css">
	.st0{fill:#3DAD68;}
</style>
<g>
	<path class="st0" d="M331.47,30.53c-8.75-8.75-22.93-8.75-31.68,0L181,149.32L62.21,30.53c-8.75-8.75-22.93-8.75-31.68,0
		c-8.75,8.75-8.75,22.93,0,31.68L149.32,181L30.53,299.79c-8.75,8.75-8.75,22.93,0,31.68c8.75,8.75,22.93,8.75,31.68,0L181,212.68
		l118.79,118.79c8.75,8.75,22.93,8.75,31.68,0c8.75-8.75,8.75-22.93,0-31.68L212.68,181L331.47,62.21
		C340.22,53.46,340.22,39.28,331.47,30.53z"/>
</g>
</svg>
