<?xml version="1.0" encoding="UTF-8"?>
<svg width="3123px" height="630px" viewBox="0 0 3123 630" version="1.1" xmlns="http://www.w3.org/2000/svg" xmlns:xlink="http://www.w3.org/1999/xlink">
    <!-- Generator: Sketch 55 (78076) - https://sketchapp.com -->
    <title>Rectangle 2 + thicontrol + E</title>
    <desc>Created with Sketch.</desc>
    <g id="Logos" stroke="none" stroke-width="1" fill="none" fill-rule="evenodd">
        <g id="whit-logo--copy" transform="translate(-163.000000, -136.000000)" fill="#FFFFFF">
            <g id="White-Logo" transform="translate(163.000000, 136.000000)">
                <g id="Group">
                    <g id="Rectangle-2-+-thicontrol-+-E">
                        <path d="M363.178603,286.813466 C363.312272,286.923944 363.457134,287.026039 363.612488,287.117225 C420.25823,320.77701 425.783541,320.77701 428.609498,340.433612 C432.000646,361.345694 473.668062,610.218301 473.668062,610.218301 L587.428278,610.218301 C587.428278,610.218301 526.199211,474.195574 494.925287,405.242225 C463.651364,336.288876 459.129833,319.144737 425.218349,306.710526 C416.007194,303.333103 407.944496,300.41782 400.969396,297.895329 C439.48792,271.40262 464.712416,227.293166 464.712416,177.345 C464.712416,96.3266986 398.358947,30.6469378 316.507177,30.6469378 C234.655407,30.6469378 168.301938,96.3266986 168.301938,177.345 C168.301938,227.294373 193.526516,271.404234 232.050168,297.895626 C225.075255,300.418048 217.012829,303.333235 207.802033,306.710526 C173.89055,319.144737 169.369019,336.288876 138.095096,405.242225 C106.821172,474.195574 45.5921053,610.218301 45.5921053,610.218301 L159.352321,610.218301 C159.352321,610.218301 201.019737,361.345694 204.410885,340.433612 C207.236842,320.77701 212.76366,320.77701 269.407895,287.117225 C269.53655,287.041755 269.65801,286.958814 269.771879,286.869831 C281.509219,280.230472 290.653554,272.547839 290.886675,264.70701 C291.278541,251.463445 274.854833,237.767727 267.62189,227.880646 C257.85689,215.469043 251.95177,199.298541 251.95177,181.613325 C251.95177,142.490024 280.854904,110.776005 316.508684,110.776005 L316.540335,110.776005 C352.195622,110.776005 381.097249,142.490024 381.097249,181.613325 C381.097249,199.297033 375.192129,215.469043 365.428636,227.880646 C358.195694,237.767727 341.773493,251.461938 342.163852,264.70701 C342.393478,272.52566 351.486644,280.187009 363.178603,286.813466 Z M0,0 L630,0 L630,630 L0,630 L0,0 Z M312.110742,335.723684 L289.754785,576.873517 L316.507177,596.71701 L343.762967,576.746914 L321.405502,335.471986 L335.535287,321.342201 L316.947273,302.754187 L298.044258,321.657201 L312.110742,335.723684 Z" id="Rectangle-2"></path>
                        <path d="M1135.5,251 L1234,251 L1234,290 L1135.5,290 L1135.5,410 C1135.5,423.000065 1136.49999,433.749957 1138.5,442.25 C1140.50001,450.750042 1143.49998,457.416642 1147.5,462.25 C1151.50002,467.083357 1156.49997,470.49999 1162.5,472.5 C1168.50003,474.50001 1175.49996,475.5 1183.5,475.5 C1197.50007,475.5 1208.74996,473.916682 1217.25,470.75 C1225.75004,467.583317 1231.66665,465.33334 1235,464 L1244,502.5 C1239.33331,504.833345 1231.16673,507.749982 1219.5,511.25 C1207.83327,514.750018 1194.50007,516.5 1179.5,516.5 C1161.83325,516.5 1147.25006,514.250022 1135.75,509.75 C1124.24994,505.249977 1115.00004,498.500045 1108,489.5 C1100.99996,480.499955 1096.08335,469.416732 1093.25,456.25 C1090.41665,443.083267 1089,427.83342 1089,410.5 L1089,178.5 L1135.5,170.5 L1135.5,251 Z M1274.77083,511 L1274.77083,131 L1321.27083,123 L1321.27083,256 C1329.93754,252.66665 1339.18744,250.083343 1349.02083,248.25 C1358.85421,246.416658 1368.60411,245.5 1378.27083,245.5 C1398.9376,245.5 1416.10409,248.416637 1429.77083,254.25 C1443.43756,260.083363 1454.35412,268.249947 1462.52083,278.75 C1470.68753,289.250052 1476.43748,301.83326 1479.77083,316.5 C1483.10418,331.16674 1484.77083,347.333245 1484.77083,365 L1484.77083,511 L1438.27083,511 L1438.27083,375 C1438.27083,358.99992 1437.1875,345.33339 1435.02083,334 C1432.85415,322.66661 1429.27085,313.500035 1424.27083,306.5 C1419.2708,299.499965 1412.6042,294.416682 1404.27083,291.25 C1395.93745,288.083318 1385.60422,286.5 1373.27083,286.5 C1368.2708,286.5 1363.10419,286.83333 1357.77083,287.5 C1352.43747,288.16667 1347.35418,288.916663 1342.52083,289.75 C1337.68747,290.583338 1333.35418,291.499995 1329.52083,292.5 C1325.68747,293.500005 1322.9375,294.33333 1321.27083,295 L1321.27083,511 L1274.77083,511 Z M1588.54165,511 L1542.04165,511 L1542.04165,251 L1588.54165,251 L1588.54165,511 Z M1565.04165,204 C1556.70828,204 1549.62502,201.250027 1543.79165,195.75 C1537.95829,190.249973 1535.04165,182.83338 1535.04165,173.5 C1535.04165,164.16662 1537.95829,156.750027 1543.79165,151.25 C1549.62502,145.749973 1556.70828,143 1565.04165,143 C1573.37503,143 1580.45829,145.749973 1586.29165,151.25 C1592.12502,156.750027 1595.04165,164.16662 1595.04165,173.5 C1595.04165,182.83338 1592.12502,190.249973 1586.29165,195.75 C1580.45829,201.250027 1573.37503,204 1565.04165,204 Z M1763.31248,517 C1742.31237,517 1723.89589,513.6667 1708.06248,507 C1692.22907,500.3333 1678.89587,491.00006 1668.06248,479 C1657.22909,466.99994 1649.14584,452.750082 1643.81248,436.25 C1638.47912,419.749918 1635.81248,401.5001 1635.81248,381.5 C1635.81248,361.4999 1638.72912,343.16675 1644.56248,326.5 C1650.39584,309.83325 1658.64576,295.416727 1669.31248,283.25 C1679.9792,271.083273 1693.0624,261.583368 1708.56248,254.75 C1724.06256,247.916632 1741.31238,244.5 1760.31248,244.5 C1771.9792,244.5 1783.64575,245.49999 1795.31248,247.5 C1806.9792,249.50001 1818.14576,252.666645 1828.81248,257 L1818.31248,296.5 C1811.31244,293.16665 1803.22919,290.50001 1794.06248,288.5 C1784.89577,286.49999 1775.14586,285.5 1764.81248,285.5 C1738.81235,285.5 1718.89588,293.666585 1705.06248,310 C1691.22908,326.333415 1684.31248,350.16651 1684.31248,381.5 C1684.31248,395.50007 1685.8958,408.333275 1689.06248,420 C1692.22916,431.666725 1697.22911,441.666625 1704.06248,450 C1710.89585,458.333375 1719.64576,464.749977 1730.31248,469.25 C1740.9792,473.750023 1753.97907,476 1769.31248,476 C1781.64587,476 1792.81243,474.833345 1802.81248,472.5 C1812.81253,470.166655 1820.64578,467.66668 1826.31248,465 L1832.81248,504 C1830.1458,505.666675 1826.3125,507.249992 1821.31248,508.75 C1816.31245,510.250008 1810.64584,511.583327 1804.31248,512.75 C1797.97911,513.916673 1791.22918,514.916663 1784.06248,515.75 C1776.89578,516.583337 1769.97918,517 1763.31248,517 Z M2087.58331,381 C2087.58331,401.66677 2084.58334,420.33325 2078.58331,437 C2072.58328,453.66675 2064.16669,467.99994 2053.33331,480 C2042.49992,492.00006 2029.58338,501.249967 2014.58331,507.75 C1999.58323,514.250032 1983.25006,517.5 1965.58331,517.5 C1947.91655,517.5 1931.58338,514.250032 1916.58331,507.75 C1901.58323,501.249967 1888.66669,492.00006 1877.83331,480 C1866.99992,467.99994 1858.58334,453.66675 1852.58331,437 C1846.58328,420.33325 1843.58331,401.66677 1843.58331,381 C1843.58331,360.666565 1846.58328,342.083417 1852.58331,325.25 C1858.58334,308.416583 1866.99992,294.00006 1877.83331,282 C1888.66669,269.99994 1901.58323,260.750032 1916.58331,254.25 C1931.58338,247.749968 1947.91655,244.5 1965.58331,244.5 C1983.25006,244.5 1999.58323,247.749968 2014.58331,254.25 C2029.58338,260.750032 2042.49992,269.99994 2053.33331,282 C2064.16669,294.00006 2072.58328,308.416583 2078.58331,325.25 C2084.58334,342.083417 2087.58331,360.666565 2087.58331,381 Z M2039.08331,381 C2039.08331,351.66652 2032.50004,328.416753 2019.33331,311.25 C2006.16657,294.083248 1988.25009,285.5 1965.58331,285.5 C1942.91653,285.5 1925.00004,294.083248 1911.83331,311.25 C1898.66657,328.416753 1892.08331,351.66652 1892.08331,381 C1892.08331,410.33348 1898.66657,433.583247 1911.83331,450.75 C1925.00004,467.916753 1942.91653,476.5 1965.58331,476.5 C1988.25009,476.5 2006.16657,467.916753 2019.33331,450.75 C2032.50004,433.583247 2039.08331,410.33348 2039.08331,381 Z M2134.85413,258.5 C2145.52085,255.83332 2159.68738,253.000015 2177.35413,250 C2195.02089,246.999985 2215.35402,245.5 2238.35413,245.5 C2259.0209,245.5 2276.1874,248.416637 2289.85413,254.25 C2303.52087,260.083363 2314.43742,268.249947 2322.60413,278.75 C2330.77084,289.250052 2336.52078,301.83326 2339.85413,316.5 C2343.18748,331.16674 2344.85413,347.333245 2344.85413,365 L2344.85413,511 L2298.35413,511 L2298.35413,375 C2298.35413,358.99992 2297.27081,345.33339 2295.10413,334 C2292.93745,322.66661 2289.35416,313.500035 2284.35413,306.5 C2279.35411,299.499965 2272.68751,294.416682 2264.35413,291.25 C2256.02076,288.083318 2245.68753,286.5 2233.35413,286.5 C2228.35411,286.5 2223.18749,286.666665 2217.85413,287 C2212.52077,287.333335 2207.43749,287.749998 2202.60413,288.25 C2197.77077,288.750002 2193.43748,289.33333 2189.60413,290 C2185.77078,290.66667 2183.02081,291.166665 2181.35413,291.5 L2181.35413,511 L2134.85413,511 L2134.85413,258.5 Z M2447.12496,251 L2545.62496,251 L2545.62496,290 L2447.12496,290 L2447.12496,410 C2447.12496,423.000065 2448.12495,433.749957 2450.12496,442.25 C2452.12497,450.750042 2455.12494,457.416642 2459.12496,462.25 C2463.12498,467.083357 2468.12493,470.49999 2474.12496,472.5 C2480.12499,474.50001 2487.12492,475.5 2495.12496,475.5 C2509.12503,475.5 2520.37492,473.916682 2528.87496,470.75 C2537.375,467.583317 2543.29161,465.33334 2546.62496,464 L2555.62496,502.5 C2550.95827,504.833345 2542.79168,507.749982 2531.12496,511.25 C2519.45823,514.750018 2506.12503,516.5 2491.12496,516.5 C2473.4582,516.5 2458.87502,514.250022 2447.37496,509.75 C2435.8749,505.249977 2426.62499,498.500045 2419.62496,489.5 C2412.62492,480.499955 2407.70831,469.416732 2404.87496,456.25 C2402.04161,443.083267 2400.62496,427.83342 2400.62496,410.5 L2400.62496,178.5 L2447.12496,170.5 L2447.12496,251 Z M2682.39578,245.5 C2686.3958,245.5 2690.97909,245.749998 2696.14578,246.25 C2701.31248,246.750002 2706.39576,247.416663 2711.39578,248.25 C2716.39581,249.083337 2720.9791,249.916663 2725.14578,250.75 C2729.31247,251.583337 2732.39577,252.33333 2734.39578,253 L2726.39578,293.5 C2722.7291,292.16666 2716.64583,290.583343 2708.14578,288.75 C2699.64574,286.916658 2688.72918,286 2675.39578,286 C2666.72907,286 2658.14583,286.916658 2649.64578,288.75 C2641.14574,290.583343 2635.56246,291.83333 2632.89578,292.5 L2632.89578,511 L2586.39578,511 L2586.39578,262 C2597.39584,257.99998 2611.06237,254.250018 2627.39578,250.75 C2643.7292,247.249982 2662.06235,245.5 2682.39578,245.5 Z M2990.66661,381 C2990.66661,401.66677 2987.66664,420.33325 2981.66661,437 C2975.66658,453.66675 2967.25,467.99994 2956.41661,480 C2945.58322,492.00006 2932.66669,501.249967 2917.66661,507.75 C2902.66654,514.250032 2886.33337,517.5 2868.66661,517.5 C2850.99986,517.5 2834.66669,514.250032 2819.66661,507.75 C2804.66654,501.249967 2791.75,492.00006 2780.91661,480 C2770.08322,467.99994 2761.66664,453.66675 2755.66661,437 C2749.66658,420.33325 2746.66661,401.66677 2746.66661,381 C2746.66661,360.666565 2749.66658,342.083417 2755.66661,325.25 C2761.66664,308.416583 2770.08322,294.00006 2780.91661,282 C2791.75,269.99994 2804.66654,260.750032 2819.66661,254.25 C2834.66669,247.749968 2850.99986,244.5 2868.66661,244.5 C2886.33337,244.5 2902.66654,247.749968 2917.66661,254.25 C2932.66669,260.750032 2945.58322,269.99994 2956.41661,282 C2967.25,294.00006 2975.66658,308.416583 2981.66661,325.25 C2987.66664,342.083417 2990.66661,360.666565 2990.66661,381 Z M2942.16661,381 C2942.16661,351.66652 2935.58334,328.416753 2922.41661,311.25 C2909.24988,294.083248 2891.33339,285.5 2868.66661,285.5 C2845.99983,285.5 2828.08334,294.083248 2814.91661,311.25 C2801.74988,328.416753 2795.16661,351.66652 2795.16661,381 C2795.16661,410.33348 2801.74988,433.583247 2814.91661,450.75 C2828.08334,467.916753 2845.99983,476.5 2868.66661,476.5 C2891.33339,476.5 2909.24988,467.916753 2922.41661,450.75 C2935.58334,433.583247 2942.16661,410.33348 2942.16661,381 Z M3115.93744,516 C3087.27063,515.33333 3066.9375,509.166725 3054.93744,497.5 C3042.93738,485.833275 3036.93744,467.66679 3036.93744,443 L3036.93744,131 L3083.43744,123 L3083.43744,435.5 C3083.43744,443.166705 3084.1041,449.499975 3085.43744,454.5 C3086.77078,459.500025 3088.93742,463.499985 3091.93744,466.5 C3094.93745,469.500015 3098.93741,471.749993 3103.93744,473.25 C3108.93746,474.750008 3115.10407,475.999995 3122.43744,477 L3115.93744,516 Z" id="thicontrol"></path>
                        <polygon id="E" points="810.3 511 810.3 129.85 1042.95 129.85 1042.95 175.5 863.65 175.5 863.65 288.8 1023.15 288.8 1023.15 333.35 863.65 333.35 863.65 465.35 1056.7 465.35 1056.7 511"></polygon>
                    </g>
                </g>
            </g>
        </g>
    </g>
</svg>