<?xml version="1.0" encoding="UTF-8"?> <svg xmlns="http://www.w3.org/2000/svg" xmlns:xlink="http://www.w3.org/1999/xlink" width="40px" height="40px" viewBox="0 0 40 40"> <title>facebook</title> <g id="footer" stroke="none" stroke-width="1" fill="none" fill-rule="evenodd"> <g id="Artboard" transform="translate(-311.000000, -118.000000)" fill="#FFFFFF" fill-rule="nonzero"> <g id="facebook" transform="translate(311.000000, 118.000000)"> <path d="M20,0.08 C9,0.08 0,9.06 0,20.12 C0,30.12 7.32,38.42 16.88,39.92 L16.88,25.92 L11.8,25.92 L11.8,20.12 L16.88,20.12 L16.88,15.7 C16.88,10.68 19.86,7.92 24.44,7.92 C26.62,7.92 28.9,8.3 28.9,8.3 L28.9,13.24 L26.38,13.24 C23.9,13.24 23.12,14.78 23.12,16.36 L23.12,20.12 L28.68,20.12 L27.78,25.92 L23.12,25.92 L23.12,39.92 C32.8575043,38.3821466 40.0221075,29.9781689 40.000051,20.12 C40.000051,9.06 31,0.08 20,0.08 Z" id="Path"></path> </g> </g> </g> </svg> 