<?xml version="1.0" encoding="UTF-8"?> <svg xmlns="http://www.w3.org/2000/svg" xmlns:xlink="http://www.w3.org/1999/xlink" width="40px" height="40px" viewBox="0 0 40 40"> <title>instagram</title> <g id="footer" stroke="none" stroke-width="1" fill="none" fill-rule="evenodd"> <g id="Artboard" transform="translate(-260.000000, -61.000000)" fill="#FFFFFF"> <path d="M280,61 C291.045695,61 300,69.954305 300,81 C300,92.045695 291.045695,101 280,101 C268.954305,101 260,92.045695 260,81 C260,69.954305 268.954305,61 280,61 Z M281.221125,68.0008297 L278.778926,68.0008274 C276.339624,68.0047076 275.848492,68.0232742 274.64075,68.078 C269.919583,68.2946667 267.29575,70.9141667 267.079083,75.6396667 C267.023414,76.8483522 267.004726,77.3396061 267.00083,79.7789241 L267.000827,82.221123 C267.004708,84.6606374 267.023274,85.1525914 267.078,86.3603333 C267.294667,91.0815 269.914167,93.7053333 274.639667,93.922 C276.027417,93.9848333 276.469417,94 280,94 C283.530583,94 283.973667,93.9848333 285.360333,93.922 C290.077167,93.7053333 292.7075,91.0858333 292.920917,86.3603333 C292.984833,84.9736667 293,84.5305833 293,81 C293,77.4694167 292.984833,77.0274167 292.922,75.64075 C292.709667,70.9239167 290.086917,68.29575 285.361417,68.0790833 C284.152731,68.023414 283.660655,68.0047256 281.221125,68.0008297 Z M285.254167,70.4190833 C288.777167,70.5794167 290.42275,72.251 290.583083,75.748 C290.637809,76.9415887 290.65391,77.4078842 290.657154,79.8016459 L290.657107,82.2008389 C290.653667,84.5951042 290.636866,85.060578 290.583083,86.2541667 C290.421667,89.7479167 288.780417,91.42275 285.254167,91.5830833 C284.059634,91.6378091 283.594861,91.6547321 281.200076,91.6581882 L278.800563,91.6581882 C276.406801,91.6547321 275.940505,91.6378091 274.746917,91.5830833 C271.21525,91.4216667 269.578333,89.7425 269.418,86.2530833 C269.363274,85.0594946 269.346351,84.5940209 269.342895,82.1997556 L269.342942,79.8006097 C269.346595,77.4070444 269.364218,76.9414489 269.418,75.7469167 C269.579417,72.251 271.220667,70.5783333 274.746917,70.418 C275.941449,70.3642177 276.407044,70.3474165 278.80061,70.3439761 L281.19944,70.3439785 C283.593217,70.3474345 284.059634,70.3643575 285.254167,70.4190833 Z M280,74.3245 C276.313417,74.3245 273.3245,77.3134167 273.3245,81 C273.3245,84.6865833 276.313417,87.6765833 280,87.6765833 C283.686583,87.6765833 286.6755,84.6876667 286.6755,81 C286.6755,77.3134167 283.686583,74.3245 280,74.3245 Z M280,76.6666667 C282.393083,76.6666667 284.333333,78.6069167 284.333333,81 C284.333333,83.3941667 282.393083,85.3333333 280,85.3333333 C277.606917,85.3333333 275.666667,83.3941667 275.666667,81 C275.666667,78.6069167 277.606917,76.6666667 280,76.6666667 Z M286.939833,72.50125 C286.0775,72.50125 285.37875,73.2 285.37875,74.06125 C285.37875,74.9225 286.0775,75.62125 286.939833,75.62125 C287.801083,75.62125 288.49875,74.9225 288.49875,74.06125 C288.49875,73.2 287.801083,72.50125 286.939833,72.50125 Z" id="instagram"></path> </g> </g> </svg> 