<?xml version="1.0" encoding="UTF-8"?> <svg xmlns="http://www.w3.org/2000/svg" xmlns:xlink="http://www.w3.org/1999/xlink" width="40px" height="40px" viewBox="0 0 40 40"> <title>linkedin</title> <g id="footer" stroke="none" stroke-width="1" fill="none" fill-rule="evenodd"> <g id="Artboard" transform="translate(-210.000000, -118.000000)" fill="#FFFFFF"> <g id="linkedin" transform="translate(210.000000, 118.000000)"> <path d="M20,0 C8.95433333,0 0,8.95433333 0,20 C0,31.0456667 8.95433333,40 20,40 C31.0456667,40 40,31.0456667 40,20 C40,8.95433333 31.0456667,0 20,0 Z M9.60133333,16.5648333 L14.13375,16.5648333 L14.13375,30.183 L9.60133333,30.183 L9.60133333,16.5648333 Z M14.4323333,12.35225 C14.4029167,11.017 13.4480833,10 11.8975,10 C10.347,10 9.33333333,11.017 9.33333333,12.35225 C9.33333333,13.6598333 10.3170833,14.7060833 11.8386667,14.7060833 L11.8676667,14.7060833 C13.4480833,14.7060833 14.4323333,13.6598333 14.4323333,12.35225 Z M25.2609167,16.2450833 C28.2435,16.2450833 30.4795,18.1919167 30.4795,22.37475 L30.4793333,30.183 L25.9470833,30.183 L25.9470833,22.89725 C25.9470833,21.06725 25.2911667,19.8185 23.6504167,19.8185 C22.39825,19.8185 21.6524167,20.6603333 21.3248333,21.4735 C21.205,21.7648333 21.1755833,22.1708333 21.1755833,22.5778333 L21.1755833,30.1833333 L16.6425833,30.1833333 C16.6425833,30.1833333 16.7023333,17.8430833 16.6425833,16.56525 L21.1755833,16.56525 L21.1755833,18.4940833 C21.7770833,17.5668333 22.8545,16.2450833 25.2609167,16.2450833 Z" id="Shape"></path> </g> </g> </g> </svg> 