<?xml version="1.0" encoding="UTF-8"?> <svg xmlns="http://www.w3.org/2000/svg" xmlns:xlink="http://www.w3.org/1999/xlink" width="40px" height="40px" viewBox="0 0 40 40"> <title>twitter</title> <g id="footer" stroke="none" stroke-width="1" fill="none" fill-rule="evenodd"> <g id="Artboard" transform="translate(-210.000000, -60.000000)" fill="#FFFFFF"> <path d="M230,60 C241.045695,60 250,68.954305 250,80 C250,91.045695 241.045695,100 230,100 C218.954305,100 210,91.045695 210,80 C210,68.954305 218.954305,60 230,60 Z M235.045455,71 C232.375,71 230.193182,73.1818182 230.193182,75.875 C230.193182,76.2613636 230.238636,76.6363636 230.318182,76.9886364 C226.272727,76.7840909 222.670455,74.8409091 220.272727,71.8977273 C219.852273,72.6136364 219.613636,73.4545455 219.613636,74.3409091 C219.613636,76.0340909 220.465909,77.5340909 221.784091,78.3863636 C220.977273,78.3863636 220.227273,78.1590909 219.568182,77.8181818 L219.568182,77.8522727 L219.568182,77.8522727 C219.568182,80.2159091 221.25,82.1931818 223.477273,82.6363636 C223.068182,82.75 222.636364,82.8068182 222.193182,82.8068182 C221.886364,82.8068182 221.579545,82.7727273 221.284091,82.7159091 C221.897727,84.6363636 223.681818,86.0681818 225.829545,86.1022727 C224.170455,87.4204545 222.068182,88.1931818 219.772727,88.1931818 C219.386364,88.1931818 219,88.1704545 218.613636,88.125 C220.772727,89.5113636 223.340909,90.3181818 226.090909,90.3181818 C235.045455,90.3181818 239.965909,82.8863636 239.965909,76.4431818 C239.965909,76.2272727 239.965909,76.0227273 239.954545,75.8068182 C240.909091,75.125 241.727273,74.2613636 242.386364,73.2727273 C241.511364,73.6704545 240.568182,73.9318182 239.590909,74.0568182 C240.590909,73.4545455 241.363636,72.5 241.727273,71.3522727 C240.784091,71.9204545 239.738636,72.3181818 238.636364,72.5454545 C237.738636,71.5681818 236.477273,71 235.045455,71 Z" id="twitter"></path> </g> </g> </svg> 