<?xml version="1.0" encoding="UTF-8"?> <svg xmlns="http://www.w3.org/2000/svg" xmlns:xlink="http://www.w3.org/1999/xlink" width="40px" height="40px" viewBox="0 0 40 40"> <title>youtube</title> <g id="footer" stroke="none" stroke-width="1" fill="none" fill-rule="evenodd"> <g id="Artboard" transform="translate(-260.000000, -118.000000)" fill="#FFFFFF"> <path d="M280,118 C291.045695,118 300,126.954305 300,138 C300,149.045695 291.045695,158 280,158 C268.954305,158 260,149.045695 260,138 C260,126.954305 268.954305,118 280,118 Z M280.5,129 L278.3535,129.081 C276.8685,129.081 275.262,129.1215 273.507,129.216 C271.725,129.297 270.564,129.4185 269.9295,129.594 C268.7145,129.9315 267.9315,130.7145 267.594,131.9295 C267.216,133.32 267,135.4935 267,138.45 L267,138.45 L267.081,139.584 C267.081,140.394 267.1215,141.3255 267.216,142.4055 C267.297,143.4855 267.4185,144.336 267.594,144.9705 C267.9315,146.1855 268.7145,146.9685 269.9295,147.306 C271.32,147.684 274.8435,147.9 280.5,147.9 L280.5,147.9 L282.6465,147.819 C284.1315,147.819 285.738,147.7785 287.493,147.684 C289.275,147.603 290.436,147.4815 291.0705,147.306 C292.2855,146.9685 293.0685,146.1855 293.406,144.9705 C293.784,143.58 294,141.4065 294,138.45 L294,138.45 L293.919,137.316 C293.919,136.506 293.8785,135.5745 293.784,134.4945 C293.703,133.4145 293.5815,132.564 293.406,131.9295 C293.0685,130.7145 292.2855,129.9315 291.0705,129.594 C289.68,129.216 286.1565,129 280.5,129 L280.5,129 Z M277.8,134.4 L284.8065,138.45 L277.8,142.5 L277.8,134.4 Z" id="youtube"></path> </g> </g> </svg> 